<?xml version="1.0" standalone="yes"?>
<svg xmlns="http://www.w3.org/2000/svg" width="210" height="66">
<path style="fill:#010101; stroke:none;" d="M0 0L0 66L210 66L210 0L0 0z"/>
<path style="fill:#2d2d2d; stroke:none;" d="M28 4L29 5L28 4z"/>
<path style="fill:#999999; stroke:none;" d="M29 4L29 5L32 5L29 4z"/>
<path style="fill:#fbfbfb; stroke:none;" d="M32 4.4429C-5.9651 9.96972 -0.0062294 69.0899 38 63.5571C75.8587 58.0458 69.8842 -1.07214 32 4.4429z"/>
<path style="fill:#999999; stroke:none;" d="M38 4L38 5L41 5L38 4z"/>
<path style="fill:#2d2d2d; stroke:none;" d="M41 4L42 5L41 4z"/>
<path style="fill:#595959; stroke:none;" d="M25 5L26 6L25 5z"/>
<path style="fill:#999999; stroke:none;" d="M26 5L27 6L26 5M43 5L44 6L43 5z"/>
<path style="fill:#595959; stroke:none;" d="M44 5L45 6L44 5z"/>
<path style="fill:#2d2d2d; stroke:none;" d="M22 6L23 7L22 6z"/>
<path style="fill:#999999; stroke:none;" d="M23 6L24 7L23 6M46 6L47 7L46 6z"/>
<path style="fill:#2d2d2d; stroke:none;" d="M47 6L48 7L47 6M20 7L21 8L20 7z"/>
<path style="fill:#999999; stroke:none;" d="M21 7L22 8L21 7M48 7L49 8L48 7z"/>
<path style="fill:#2d2d2d; stroke:none;" d="M49 7L50 8L49 7z"/>
<path style="fill:#999999; stroke:none;" d="M19 8L20 9L19 8M50 8L51 9L50 8z"/>
<path style="fill:#595959; stroke:none;" d="M17 9L18 10L17 9M52 9L53 10L52 9z"/>
<path style="fill:#999999; stroke:none;" d="M16 10L17 11L16 10M53 10L54 11L53 10M54 11L55 12L54 11M57 14L58 15L57 14M11 15L12 16L11 15M58 15L59 16L58 15z"/>
<path style="fill:#595959; stroke:none;" d="M10 16L11 17L10 16M59 16L60 17L59 16z"/>
<path style="fill:#2d2d2d; stroke:none;" d="M161 17L162 18L161 17z"/>
<path style="fill:#999999; stroke:none;" d="M9 18L10 19L9 18M60 18L61 19L60 18M159 18L158 20L159 18z"/>
<path style="fill:#fbfbfb; stroke:none;" d="M160.279 19.1713C157.399 20.6936 159.782 24.8152 162.397 22.9182C164.5 21.3919 162.747 17.8666 160.279 19.1713z"/>
<path style="fill:#2d2d2d; stroke:none;" d="M163 18L164 19L163 18M8 19L9 20L8 19M61 19L62 20L61 19M171 19L172 20L171 19z"/>
<path style="fill:#999999; stroke:none;" d="M172 19L173 20L172 19z"/>
<path style="fill:#fbfbfb; stroke:none;" d="M169 27L166 27L169 48L173 48L173 40.9985C173.046 18.9136 190.792 49.3856 179 49L178 53C190.557 55.8763 195.51 36.949 197 27C190.136 28.1197 189.826 35.6371 187 41C184.005 32.1455 183.07 27.0078 173 27L179 24C177.538 15.5836 169.483 20.6474 169 27z"/>
<path style="fill:#999999; stroke:none;" d="M177.667 19.3333L178.333 19.6667L177.667 19.3333M8 20L9 21L8 20M20.6667 20.3333L21.3333 20.6667L20.6667 20.3333z"/>
<path style="fill:#595959; stroke:none;" d="M22 20L23 21L22 20z"/>
<path style="fill:#2d2d2d; stroke:none;" d="M23.6667 20.3333L24.3333 20.6667L23.6667 20.3333z"/>
<path style="fill:#010101; stroke:none;" d="M25 20.4282C23.6373 20.624 11.0977 24.0077 17.3372 26.2307C24.4843 28.7771 35.6527 24.6391 44 26.9267C46.8291 27.702 51.6392 31.0167 54.5733 29.659C59.0503 27.5873 50.3669 23.5858 48.9992 23.0903C41.6801 20.4388 32.7076 19.321 25 20.4282z"/>
<path style="fill:#2d2d2d; stroke:none;" d="M36.6667 20.3333L37.3333 20.6667L36.6667 20.3333z"/>
<path style="fill:#595959; stroke:none;" d="M38 20L39 21L38 20z"/>
<path style="fill:#999999; stroke:none;" d="M39.6667 20.3333L40.3333 20.6667L39.6667 20.3333M61 20L62 21L61 20z"/>
<path style="fill:#2d2d2d; stroke:none;" d="M80 20L81 21L80 20z"/>
<path style="fill:#999999; stroke:none;" d="M81.6667 20.3333L82.3333 20.6667L81.6667 20.3333z"/>
<path style="fill:#fbfbfb; stroke:none;" d="M78 40L77 40L74 44C79.9854 47.4023 99.8641 50.721 94.2539 37.108C93.6842 35.7258 72.8792 22.4947 87.9753 25.7292C89.6692 26.0921 91.2977 26.6507 93 27L94 23C88.1295 20.1263 72.9488 18.7187 76.0679 29.9846C77.8628 36.4675 85.0038 34.3794 88.2485 38.6875C92.7822 44.7072 80.0068 41.405 78 40z"/>
<path style="fill:#999999; stroke:none;" d="M86.6667 20.3333L87.3333 20.6667L86.6667 20.3333z"/>
<path style="fill:#595959; stroke:none;" d="M88 20L89 21L88 20z"/>
<path style="fill:#2d2d2d; stroke:none;" d="M89 20L90 21L89 20M157.333 20.6667L157.667 21.3333L157.333 20.6667M164 20L165 21L164 20z"/>
<path style="fill:#999999; stroke:none;" d="M170 20L171 21L170 20z"/>
<path style="fill:#2d2d2d; stroke:none;" d="M7 21L8 22L7 21z"/>
<path style="fill:#999999; stroke:none;" d="M16 21L17 22L16 21z"/>
<path style="fill:#595959; stroke:none;" d="M17 21L18 22L17 21z"/>
<path style="fill:#2d2d2d; stroke:none;" d="M18 21L19 22L18 21M43 21L44 22L43 21z"/>
<path style="fill:#595959; stroke:none;" d="M44 21L45 22L44 21z"/>
<path style="fill:#999999; stroke:none;" d="M45 21L46 22L45 21z"/>
<path style="fill:#2d2d2d; stroke:none;" d="M62 21L63 22L62 21M78 21L79 22L78 21z"/>
<path style="fill:#595959; stroke:none;" d="M91 21L92 22L91 21z"/>
<path style="fill:#2d2d2d; stroke:none;" d="M145 21L146 22L145 21z"/>
<path style="fill:#999999; stroke:none;" d="M145 27L146 27L146 22L150 22L150 27C152.251 21.0748 145.538 20.0969 145 27z"/>
<path style="fill:#595959; stroke:none;" d="M150 21L151 22L150 21M164 21L165 22L164 21M169 21L170 22L169 21z"/>
<path style="fill:#999999; stroke:none;" d="M7 22L8 23L7 22z"/>
<path style="fill:#2d2d2d; stroke:none;" d="M15 22L16 23L15 22z"/>
<path style="fill:#595959; stroke:none;" d="M47 22L48 23L47 22z"/>
<path style="fill:#999999; stroke:none;" d="M48 22L49 23L48 22M62 22L63 23L62 22z"/>
<path style="fill:#595959; stroke:none;" d="M77 22L78 23L77 22z"/>
<path style="fill:#2d2d2d; stroke:none;" d="M93 22L94 23L93 22z"/>
<path style="fill:#fbfbfb; stroke:none;" d="M146 22L146 27L143 27C143.66 31.2692 144.878 42.2246 147.179 45.5664C150.321 50.1295 155.28 47.316 156 43L152 44C149.947 38.3667 148.54 32.1897 156 31L156 27L150 27L150 22L146 22z"/>
<path style="fill:#2d2d2d; stroke:none;" d="M164 22L165 23L164 22M6 23L7 24L6 23z"/>
<path style="fill:#595959; stroke:none;" d="M14 23L15 24L14 23M50 23L51 24L50 23z"/>
<path style="fill:#999999; stroke:none;" d="M51 23L52 24L51 23z"/>
<path style="fill:#595959; stroke:none;" d="M76 23L77 24L76 23z"/>
<path style="fill:#999999; stroke:none;" d="M94 23L95 24L94 23z"/>
<path style="fill:#2d2d2d; stroke:none;" d="M158 23L159 24L158 23z"/>
<path style="fill:#595959; stroke:none;" d="M163 23L164 24L163 23z"/>
<path style="fill:#2d2d2d; stroke:none;" d="M168 23L169 24L168 23z"/>
<path style="fill:#999999; stroke:none;" d="M175.667 23.3333L176.333 23.6667L175.667 23.3333z"/>
<path style="fill:#595959; stroke:none;" d="M6 24L7 25L6 24z"/>
<path style="fill:#2d2d2d; stroke:none;" d="M14 24L15 25L14 24M52 24L53 25L52 24z"/>
<path style="fill:#999999; stroke:none;" d="M53 24L54 25L53 24z"/>
<path style="fill:#595959; stroke:none;" d="M63 24L64 25L63 24z"/>
<path style="fill:#2d2d2d; stroke:none;" d="M94 24L95 25L94 24z"/>
<path style="fill:#595959; stroke:none;" d="M160.667 24.3333L161.333 24.6667L160.667 24.3333z"/>
<path style="fill:#2d2d2d; stroke:none;" d="M162 24L163 25L162 24z"/>
<path style="fill:#999999; stroke:none;" d="M168 24L168 27L169 27L168 24z"/>
<path style="fill:#2d2d2d; stroke:none;" d="M174 24L175 25L174 24M178 24L179 25L178 24z"/>
<path style="fill:#999999; stroke:none;" d="M6 25L7 26L6 25M14 25L15 26L14 25z"/>
<path style="fill:#2d2d2d; stroke:none;" d="M24.6667 25.3333L25.3333 25.6667L24.6667 25.3333z"/>
<path style="fill:#595959; stroke:none;" d="M26 25L27 26L26 25z"/>
<path style="fill:#999999; stroke:none;" d="M27 25L27 26L34 26L27 25z"/>
<path style="fill:#595959; stroke:none;" d="M34 25L35 26L34 25z"/>
<path style="fill:#2d2d2d; stroke:none;" d="M35.6667 25.3333L36.3333 25.6667L35.6667 25.3333M54 25L55 26L54 25z"/>
<path style="fill:#999999; stroke:none;" d="M55 25L56 26L55 25M63 25L64 26L63 25z"/>
<path style="fill:#595959; stroke:none;" d="M75 25L76 26L75 25z"/>
<path style="fill:#2d2d2d; stroke:none;" d="M82 25L83 26L82 25M86 25L87 26L86 25z"/>
<path style="fill:#595959; stroke:none;" d="M87 25L88 26L87 25z"/>
<path style="fill:#999999; stroke:none;" d="M88 25L89 26L88 25M93 25L94 26L93 25M173.333 25.6667L173.667 26.3333L173.333 25.6667z"/>
<path style="fill:#2d2d2d; stroke:none;" d="M15 26L16 27L15 26z"/>
<path style="fill:#595959; stroke:none;" d="M19 26L20 27L19 26z"/>
<path style="fill:#999999; stroke:none;" d="M20.6667 26.3333L21.3333 26.6667L20.6667 26.3333M40.6667 26.3333L41.3333 26.6667L40.6667 26.3333z"/>
<path style="fill:#2d2d2d; stroke:none;" d="M42 26L43 27L42 26z"/>
<path style="fill:#999999; stroke:none;" d="M56 26L57 27L56 26M75.3333 26.6667L75.6667 27.3333L75.3333 26.6667z"/>
<path style="fill:#2d2d2d; stroke:none;" d="M89 26L90 27L89 26M107 26L108 27L107 26z"/>
<path style="fill:#595959; stroke:none;" d="M108.667 26.3333L109.333 26.6667L108.667 26.3333z"/>
<path style="fill:#2d2d2d; stroke:none;" d="M110 26L111 27L110 26M129.667 26.3333L130.333 26.6667L129.667 26.3333z"/>
<path style="fill:#999999; stroke:none;" d="M131 26L132 27L131 26z"/>
<path style="fill:#2d2d2d; stroke:none;" d="M132.667 26.3333L133.333 26.6667L132.667 26.3333z"/>
<path style="fill:#595959; stroke:none;" d="M5 27L6 28L5 27z"/>
<path style="fill:#999999; stroke:none;" d="M17 27L18 28L17 27M44 27L45 28L44 27z"/>
<path style="fill:#595959; stroke:none;" d="M45 27L46 28L45 27z"/>
<path style="fill:#2d2d2d; stroke:none;" d="M46 27L47 28L46 27M56 27L57 28L56 27M64 27L65 28L64 27z"/>
<path style="fill:#999999; stroke:none;" d="M80.3333 27.6667L80.6667 28.3333L80.3333 27.6667M91 27L92 28L91 27z"/>
<path style="fill:#2d2d2d; stroke:none;" d="M92 27L93 28L92 27z"/>
<path style="fill:#999999; stroke:none;" d="M97 27L97 54L98 54L97 27z"/>
<path style="fill:#fbfbfb; stroke:none;" d="M98 27L98 54L102 54L102 46C104.588 46.9429 107.176 48.0348 109.996 47.7431C124.212 46.2723 118.095 19.3787 102 30L98 27z"/>
<path style="fill:#999999; stroke:none;" d="M102 27L102 30L103 30L102 27M105 27L106 28L105 27M112 27L113 28L112 27z"/>
<path style="fill:#2d2d2d; stroke:none;" d="M113 27L114 28L113 27M126 27L127 28L126 27z"/>
<path style="fill:#999999; stroke:none;" d="M127 27L128 28L127 27z"/>
<path style="fill:#fbfbfb; stroke:none;" d="M128.004 27.6535C114.981 31.7256 121.849 51.5073 134.985 47.3465C147.94 43.2433 141.054 23.5729 128.004 27.6535z"/>
<path style="fill:#999999; stroke:none;" d="M135 27L136 28L135 27z"/>
<path style="fill:#2d2d2d; stroke:none;" d="M136 27L137 28L136 27M156 27L156 32L157 32L156 27z"/>
<path style="fill:#999999; stroke:none;" d="M158 27L158 47L159 47L158 27z"/>
<path style="fill:#fbfbfb; stroke:none;" d="M159 27L159 48L163 48L163 27L159 27z"/>
<path style="fill:#999999; stroke:none;" d="M163 27L163 48L164 48L163 27M192 27L193 28L192 27M197 27L198 28L197 27z"/>
<path style="fill:#2d2d2d; stroke:none;" d="M199 27L201 29L199 27z"/>
<path style="fill:#595959; stroke:none;" d="M200 27L200 28L204 28L201 33C206.25 33.1254 204.3 27.7183 200 27z"/>
<path style="fill:#999999; stroke:none;" d="M5 28L5 31L6 31L5 28z"/>
<path style="fill:#595959; stroke:none;" d="M48 28L49 29L48 28z"/>
<path style="fill:#999999; stroke:none;" d="M64 28L64 32L65 32L64 28z"/>
<path style="fill:#2d2d2d; stroke:none;" d="M103 28L104 29L103 28z"/>
<path style="fill:#999999; stroke:none;" d="M114 28L115 29L114 28M125 28L126 29L125 28M137 28L138 29L137 28z"/>
<path style="fill:#595959; stroke:none;" d="M182 28L183 29L182 28z"/>
<path style="fill:#2d2d2d; stroke:none;" d="M191 28L192 29L191 28z"/>
<path style="fill:#595959; stroke:none;" d="M197 28L198 29L197 28M199 28L198 31L199 31L199 28z"/>
<path style="fill:#999999; stroke:none;" d="M201 28L203 32L201 28z"/>
<path style="fill:#010101; stroke:none;" d="M203 28L204 29L203 28z"/>
<path style="fill:#999999; stroke:none;" d="M50 29L51 30L50 29z"/>
<path style="fill:#595959; stroke:none;" d="M56 29L57 30L56 29z"/>
<path style="fill:#999999; stroke:none;" d="M75.3333 29.6667L75.6667 30.3333L75.3333 29.6667z"/>
<path style="fill:#2d2d2d; stroke:none;" d="M81 29L82 30L81 29M123 29L124 30L123 29M139 29L140 30L139 29z"/>
<path style="fill:#595959; stroke:none;" d="M191 29L192 30L191 29z"/>
<path style="fill:#010101; stroke:none;" d="M199.333 29.6667L199.667 30.3333L199.333 29.6667M201 29L202 30L201 29z"/>
<path style="fill:#2d2d2d; stroke:none;" d="M203 29L204 30L203 29z"/>
<path style="fill:#999999; stroke:none;" d="M23 30L23 31L26 31L23 30z"/>
<path style="fill:#2d2d2d; stroke:none;" d="M26 30L26 31L32 31L26 30z"/>
<path style="fill:#595959; stroke:none;" d="M32 30L33 31L32 30z"/>
<path style="fill:#999999; stroke:none;" d="M33 30L33 31L37 31L33 30M52 30L53 31L52 30z"/>
<path style="fill:#2d2d2d; stroke:none;" d="M53 30L54 31L53 30z"/>
<path style="fill:#595959; stroke:none;" d="M55 30L56 31L55 30z"/>
<path style="fill:#999999; stroke:none;" d="M82 30L83 31L82 30z"/>
<path style="fill:#2d2d2d; stroke:none;" d="M83 30L84 31L83 30z"/>
<path style="fill:#999999; stroke:none;" d="M116 30L117 31L116 30z"/>
<path style="fill:#2d2d2d; stroke:none;" d="M122 30L123 31L122 30M183 30L184 31L183 30z"/>
<path style="fill:#999999; stroke:none;" d="M196 30L197 31L196 30z"/>
<path style="fill:#010101; stroke:none;" d="M203.333 30.6667L203.667 31.3333L203.333 30.6667z"/>
<path style="fill:#999999; stroke:none;" d="M18.6667 31.3333L19.3333 31.6667L18.6667 31.3333z"/>
<path style="fill:#2d2d2d; stroke:none;" d="M20 31L21 32L20 31z"/>
<path style="fill:#010101; stroke:none;" d="M17 36C30.1217 34.9645 38.4887 36.4234 51 40L52 36C44.5808 32.957 20.7018 24.5742 17 36z"/>
<path style="fill:#2d2d2d; stroke:none;" d="M39 31L40 32L39 31z"/>
<path style="fill:#999999; stroke:none;" d="M40.6667 31.3333L41.3333 31.6667L40.6667 31.3333z"/>
<path style="fill:#2d2d2d; stroke:none;" d="M75 31L76 32L75 31z"/>
<path style="fill:#999999; stroke:none;" d="M85 31L86 32L85 31z"/>
<path style="fill:#595959; stroke:none;" d="M86 31L87 32L86 31z"/>
<path style="fill:#999999; stroke:none;" d="M106 31L107 32L106 31z"/>
<path style="fill:#595959; stroke:none;" d="M107.667 31.3333L108.333 31.6667L107.667 31.3333z"/>
<path style="fill:#999999; stroke:none;" d="M109 31L110 32L109 31z"/>
<path style="fill:#595959; stroke:none;" d="M117 31L118 32L117 31z"/>
<path style="fill:#999999; stroke:none;" d="M129.667 31.3333L130.333 31.6667L129.667 31.3333z"/>
<path style="fill:#595959; stroke:none;" d="M131 31L132 32L131 31z"/>
<path style="fill:#999999; stroke:none;" d="M132.667 31.3333L133.333 31.6667L132.667 31.3333M140 31L141 32L140 31M143.667 31.3333L144.333 31.6667L143.667 31.3333M151 31L151 32L156 32L151 31M166.667 31.3333L167.333 31.6667L166.667 31.3333M174 31L174 32L178 32L174 31M183 31L184 32L183 31z"/>
<path style="fill:#2d2d2d; stroke:none;" d="M190 31L191 32L190 31M196 31L197 32L196 31M198 31L198 32L200 34L201 34L198 31z"/>
<path style="fill:#595959; stroke:none;" d="M200 31L201 32L200 31z"/>
<path style="fill:#010101; stroke:none;" d="M201 31L201 33L203 33L201 31z"/>
<path style="fill:#2d2d2d; stroke:none;" d="M17 32L18 33L17 32z"/>
<path style="fill:#595959; stroke:none;" d="M43 32L44 33L43 32z"/>
<path style="fill:#999999; stroke:none;" d="M44 32L45 33L44 32M76 32L77 33L76 32M88 32L89 33L88 32z"/>
<path style="fill:#595959; stroke:none;" d="M89 32L90 33L89 32z"/>
<path style="fill:#999999; stroke:none;" d="M104 32L103 34L104 32z"/>
<path style="fill:#010101; stroke:none;" d="M105.433 33.0324C100.457 36.3601 105.03 45.6711 110.567 41.9676C115.543 38.6399 110.97 29.3289 105.433 33.0324z"/>
<path style="fill:#999999; stroke:none;" d="M111 32L112 33L111 32z"/>
<path style="fill:#595959; stroke:none;" d="M121 32L122 33L121 32z"/>
<path style="fill:#2d2d2d; stroke:none;" d="M128 32L129 33L128 32z"/>
<path style="fill:#010101; stroke:none;" d="M129.228 32.7616C123.555 35.1185 126.883 44.4179 132.945 42.3526C139.668 40.0621 135.598 30.1154 129.228 32.7616z"/>
<path style="fill:#2d2d2d; stroke:none;" d="M134 32L135 33L134 32z"/>
<path style="fill:#595959; stroke:none;" d="M141 32L142 33L141 32z"/>
<path style="fill:#999999; stroke:none;" d="M145 32L145 43L146 43L145 32M150 32L150 41L151 41L150 32M168 32L168 47L169 47L168 32M173 32L173 48L174 48L173 32M178 32L179 33L178 32M190 32L191 33L190 32z"/>
<path style="fill:#595959; stroke:none;" d="M199 32L200 33L199 32z"/>
<path style="fill:#2d2d2d; stroke:none;" d="M204 32L205 33L204 32z"/>
<path style="fill:#595959; stroke:none;" d="M16.3333 33.6667L16.6667 34.3333L16.3333 33.6667M46 33L47 34L46 33z"/>
<path style="fill:#999999; stroke:none;" d="M47 33L48 34L47 33M77 33L78 34L77 33M91 33L92 34L91 33M112 33L113 34L112 33z"/>
<path style="fill:#2d2d2d; stroke:none;" d="M118 33L119 34L118 33M135 33L136 34L135 33M178 33L179 34L178 33z"/>
<path style="fill:#595959; stroke:none;" d="M184 33L185 34L184 33M195 33L196 34L195 33z"/>
<path style="fill:#2d2d2d; stroke:none;" d="M48 34L49 35L48 34z"/>
<path style="fill:#999999; stroke:none;" d="M49 34L50 35L49 34z"/>
<path style="fill:#595959; stroke:none;" d="M78 34L79 35L78 34z"/>
<path style="fill:#2d2d2d; stroke:none;" d="M93 34L94 35L93 34M103 34L104 35L103 34M112 34L113 35L112 34z"/>
<path style="fill:#999999; stroke:none;" d="M118 34L118 41L119 41L118 34z"/>
<path style="fill:#2d2d2d; stroke:none;" d="M120 34L121 35L120 34z"/>
<path style="fill:#595959; stroke:none;" d="M126 34L127 35L126 34z"/>
<path style="fill:#999999; stroke:none;" d="M136 34L137 35L136 34z"/>
<path style="fill:#2d2d2d; stroke:none;" d="M142 34L143 35L142 34z"/>
<path style="fill:#999999; stroke:none;" d="M179 34L180 35L179 34M184 34L185 35L184 34z"/>
<path style="fill:#2d2d2d; stroke:none;" d="M189 34L190 35L189 34z"/>
<path style="fill:#999999; stroke:none;" d="M16 35L17 36L16 35z"/>
<path style="fill:#2d2d2d; stroke:none;" d="M21 35L22 36L21 35z"/>
<path style="fill:#595959; stroke:none;" d="M22 35L23 36L22 35z"/>
<path style="fill:#999999; stroke:none;" d="M23.6667 35.3333L24.3333 35.6667L23.6667 35.3333M34 35L34 36L37 36L34 35z"/>
<path style="fill:#595959; stroke:none;" d="M37 35L38 36L37 35z"/>
<path style="fill:#2d2d2d; stroke:none;" d="M38 35L39 36L38 35M50 35L51 36L50 35z"/>
<path style="fill:#999999; stroke:none;" d="M51 35L52 36L51 35z"/>
<path style="fill:#595959; stroke:none;" d="M80 35L81 36L80 35z"/>
<path style="fill:#2d2d2d; stroke:none;" d="M94 35L95 36L94 35z"/>
<path style="fill:#999999; stroke:none;" d="M102 35L102 39L103 39L102 35M120 35L120 40L121 40L120 35z"/>
<path style="fill:#595959; stroke:none;" d="M142 35L143 36L142 35M179 35L180 36L179 35z"/>
<path style="fill:#2d2d2d; stroke:none;" d="M185 35L186 36L185 35z"/>
<path style="fill:#999999; stroke:none;" d="M189 35L190 36L189 35M194 35L195 36L194 35M18.6667 36.3333L19.3333 36.6667L18.6667 36.3333M40 36L41 37L40 36z"/>
<path style="fill:#595959; stroke:none;" d="M41 36L42 37L41 36z"/>
<path style="fill:#999999; stroke:none;" d="M52 36L53 37L52 36M64 36L64 40L65 40L64 36z"/>
<path style="fill:#595959; stroke:none;" d="M83 36L84 37L83 36z"/>
<path style="fill:#999999; stroke:none;" d="M84 36L85 37L84 36M94 36L95 37L94 36M113 36L113 39L114 39L113 36M125 36L125 39L126 39L125 36M142 36L142 39L143 39L142 36z"/>
<path style="fill:#595959; stroke:none;" d="M185 36L186 37L185 36M194 36L195 37L194 36z"/>
<path style="fill:#999999; stroke:none;" d="M5 37L5 40L6 40L5 37M43 37L44 38L43 37z"/>
<path style="fill:#595959; stroke:none;" d="M44 37L45 38L44 37M52.3333 37.6667L52.6667 38.3333L52.3333 37.6667z"/>
<path style="fill:#2d2d2d; stroke:none;" d="M86 37L87 38L86 37z"/>
<path style="fill:#999999; stroke:none;" d="M87 37L88 38L87 37z"/>
<path style="fill:#2d2d2d; stroke:none;" d="M95 37L96 38L95 37z"/>
<path style="fill:#999999; stroke:none;" d="M137.333 37.6667L137.667 38.3333L137.333 37.6667M180 37L181 38L180 37z"/>
<path style="fill:#595959; stroke:none;" d="M188 37L189 38L188 37z"/>
<path style="fill:#999999; stroke:none;" d="M46 38L47 39L46 38M89 38L90 39L89 38z"/>
<path style="fill:#595959; stroke:none;" d="M95 38L96 39L95 38z"/>
<path style="fill:#2d2d2d; stroke:none;" d="M186 38L187 39L186 38z"/>
<path style="fill:#999999; stroke:none;" d="M188 38L189 39L188 38M193 38L194 39L193 38M48 39L49 40L48 39z"/>
<path style="fill:#2d2d2d; stroke:none;" d="M51 39L52 40L51 39z"/>
<path style="fill:#999999; stroke:none;" d="M95.3333 39.6667L95.6667 40.3333L95.3333 39.6667z"/>
<path style="fill:#595959; stroke:none;" d="M142 39L143 40L142 39z"/>
<path style="fill:#999999; stroke:none;" d="M181 39L182 40L181 39M186 39L187 40L186 39z"/>
<path style="fill:#2d2d2d; stroke:none;" d="M193 39L194 40L193 39M5 40L6 41L5 40z"/>
<path style="fill:#999999; stroke:none;" d="M22.6667 40.3333L23.3333 40.6667L22.6667 40.3333z"/>
<path style="fill:#595959; stroke:none;" d="M24 40L25 41L24 40z"/>
<path style="fill:#2d2d2d; stroke:none;" d="M25.6667 40.3333L26.3333 40.6667L25.6667 40.3333z"/>
<path style="fill:#010101; stroke:none;" d="M18 44L34 43.7693L49 47C43.5222 40.627 23.7556 35.8523 18 44z"/>
<path style="fill:#2d2d2d; stroke:none;" d="M33.6667 40.3333L34.3333 40.6667L33.6667 40.3333z"/>
<path style="fill:#595959; stroke:none;" d="M35 40L36 41L35 40z"/>
<path style="fill:#999999; stroke:none;" d="M36.6667 40.3333L37.3333 40.6667L36.6667 40.3333z"/>
<path style="fill:#2d2d2d; stroke:none;" d="M64 40L65 41L64 40z"/>
<path style="fill:#595959; stroke:none;" d="M76 40L77 41L76 40z"/>
<path style="fill:#2d2d2d; stroke:none;" d="M78 40L79 41L78 40M103 40L104 41L103 40M112 40L113 41L112 40M120 40L121 41L120 40z"/>
<path style="fill:#595959; stroke:none;" d="M126 40L127 41L126 40M136 40L137 41L136 40z"/>
<path style="fill:#2d2d2d; stroke:none;" d="M142 40L143 41L142 40M181 40L182 41L181 40z"/>
<path style="fill:#595959; stroke:none;" d="M187 40L188 41L187 40z"/>
<path style="fill:#999999; stroke:none;" d="M192 40L193 41L192 40M18 41L19 42L18 41z"/>
<path style="fill:#2d2d2d; stroke:none;" d="M19 41L20 42L19 41z"/>
<path style="fill:#595959; stroke:none;" d="M40 41L41 42L40 41z"/>
<path style="fill:#999999; stroke:none;" d="M41 41L42 42L41 41z"/>
<path style="fill:#2d2d2d; stroke:none;" d="M75 41L76 42L75 41z"/>
<path style="fill:#595959; stroke:none;" d="M79 41L80 42L79 41z"/>
<path style="fill:#2d2d2d; stroke:none;" d="M89 41L90 42L89 41M95 41L96 42L95 41z"/>
<path style="fill:#999999; stroke:none;" d="M112 41L113 42L112 41z"/>
<path style="fill:#2d2d2d; stroke:none;" d="M118 41L119 42L118 41M135 41L136 42L135 41z"/>
<path style="fill:#595959; stroke:none;" d="M192 41L193 42L192 41z"/>
<path style="fill:#999999; stroke:none;" d="M6 42L7 43L6 42M17.3333 42.6667L17.6667 43.3333L17.3333 42.6667z"/>
<path style="fill:#595959; stroke:none;" d="M43 42L44 43L43 42z"/>
<path style="fill:#999999; stroke:none;" d="M63 42L64 43L63 42z"/>
<path style="fill:#2d2d2d; stroke:none;" d="M74 42L75 43L74 42z"/>
<path style="fill:#595959; stroke:none;" d="M81 42L82 43L81 42z"/>
<path style="fill:#2d2d2d; stroke:none;" d="M88 42L89 43L88 42z"/>
<path style="fill:#999999; stroke:none;" d="M104 42L105 43L104 42M111 42L112 43L111 42z"/>
<path style="fill:#595959; stroke:none;" d="M121 42L122 43L121 42z"/>
<path style="fill:#2d2d2d; stroke:none;" d="M128 42L129 43L128 42M134 42L135 43L134 42M141 42L142 43L141 42M151 42L152 43L151 42M155 42L156 43L155 42z"/>
<path style="fill:#595959; stroke:none;" d="M182 42L183 43L182 42M6 43L7 44L6 43z"/>
<path style="fill:#2d2d2d; stroke:none;" d="M28 43L28 44L33 44L28 43z"/>
<path style="fill:#595959; stroke:none;" d="M45 43L46 44L45 43M63 43L64 44L63 43z"/>
<path style="fill:#999999; stroke:none;" d="M83 43L83 44L87 44L83 43M94 43L95 44L94 43M106.667 43.3333L107.333 43.6667L106.667 43.3333z"/>
<path style="fill:#595959; stroke:none;" d="M108 43L109 44L108 43z"/>
<path style="fill:#999999; stroke:none;" d="M109 43L110 44L109 43z"/>
<path style="fill:#595959; stroke:none;" d="M117 43L118 44L117 43z"/>
<path style="fill:#999999; stroke:none;" d="M129.667 43.3333L130.333 43.6667L129.667 43.3333z"/>
<path style="fill:#2d2d2d; stroke:none;" d="M131 43L132 44L131 43z"/>
<path style="fill:#999999; stroke:none;" d="M132.667 43.3333L133.333 43.6667L132.667 43.3333M140 43L141 44L140 43z"/>
<path style="fill:#595959; stroke:none;" d="M145 43L146 44L145 43z"/>
<path style="fill:#999999; stroke:none;" d="M152.667 43.3333L153.333 43.6667L152.667 43.3333z"/>
<path style="fill:#2d2d2d; stroke:none;" d="M156 43L156 47L157 47L156 43z"/>
<path style="fill:#999999; stroke:none;" d="M191 43L192 44L191 43z"/>
<path style="fill:#2d2d2d; stroke:none;" d="M18 44L19 45L18 44M20.6667 44.3333L21.3333 44.6667L20.6667 44.3333z"/>
<path style="fill:#999999; stroke:none;" d="M22.6667 44.3333L23.3333 44.6667L22.6667 44.3333M36.6667 44.3333L37.3333 44.6667L36.6667 44.3333z"/>
<path style="fill:#2d2d2d; stroke:none;" d="M38 44L39 45L38 44z"/>
<path style="fill:#595959; stroke:none;" d="M47 44L48 45L47 44z"/>
<path style="fill:#2d2d2d; stroke:none;" d="M74 44L75 45L74 44M94 44L95 45L94 44z"/>
<path style="fill:#999999; stroke:none;" d="M116 44L117 45L116 44z"/>
<path style="fill:#2d2d2d; stroke:none;" d="M122 44L123 45L122 44M145 44L146 45L145 44z"/>
<path style="fill:#999999; stroke:none;" d="M183 44L184 45L183 44z"/>
<path style="fill:#2d2d2d; stroke:none;" d="M191 44L192 45L191 44z"/>
<path style="fill:#999999; stroke:none;" d="M7 45L8 46L7 45M40 45L41 46L40 45z"/>
<path style="fill:#595959; stroke:none;" d="M41 45L42 46L41 45z"/>
<path style="fill:#2d2d2d; stroke:none;" d="M48 45L49 46L48 45z"/>
<path style="fill:#999999; stroke:none;" d="M62 45L63 46L62 45M76 45L77 46L76 45z"/>
<path style="fill:#595959; stroke:none;" d="M93 45L94 46L93 45z"/>
<path style="fill:#2d2d2d; stroke:none;" d="M123 45L124 46L123 45M139 45L140 46L139 45z"/>
<path style="fill:#999999; stroke:none;" d="M146 45L147 46L146 45z"/>
<path style="fill:#2d2d2d; stroke:none;" d="M183 45L184 46L183 45M7 46L8 47L7 46z"/>
<path style="fill:#999999; stroke:none;" d="M43 46L44 47L43 46z"/>
<path style="fill:#2d2d2d; stroke:none;" d="M62 46L63 47L62 46M77 46L78 47L77 46z"/>
<path style="fill:#999999; stroke:none;" d="M78 46L79 47L78 46z"/>
<path style="fill:#2d2d2d; stroke:none;" d="M92 46L93 47L92 46z"/>
<path style="fill:#999999; stroke:none;" d="M102 46L102 54L103 54L102 46z"/>
<path style="fill:#2d2d2d; stroke:none;" d="M103 46L104 47L103 46z"/>
<path style="fill:#999999; stroke:none;" d="M114 46L115 47L114 46z"/>
<path style="fill:#2d2d2d; stroke:none;" d="M124 46L125 47L124 46z"/>
<path style="fill:#999999; stroke:none;" d="M125 46L126 47L125 46M137 46L138 47L137 46z"/>
<path style="fill:#2d2d2d; stroke:none;" d="M146 46L147 47L146 46z"/>
<path style="fill:#999999; stroke:none;" d="M184 46L185 47L184 46z"/>
<path style="fill:#595959; stroke:none;" d="M190 46L191 47L190 46z"/>
<path style="fill:#999999; stroke:none;" d="M8 47L9 48L8 47M45 47L46 48L45 47M48 47L49 48L48 47M61 47L62 48L61 47z"/>
<path style="fill:#2d2d2d; stroke:none;" d="M79 47L80 48L79 47z"/>
<path style="fill:#595959; stroke:none;" d="M80 47L81 48L80 47z"/>
<path style="fill:#999999; stroke:none;" d="M81 47L82 48L81 47M89 47L90 48L89 47z"/>
<path style="fill:#595959; stroke:none;" d="M90 47L91 48L90 47z"/>
<path style="fill:#999999; stroke:none;" d="M105 47L106 48L105 47M112 47L113 48L112 47z"/>
<path style="fill:#2d2d2d; stroke:none;" d="M113 47L114 48L113 47M126 47L127 48L126 47z"/>
<path style="fill:#999999; stroke:none;" d="M127 47L128 48L127 47M135 47L136 48L135 47z"/>
<path style="fill:#2d2d2d; stroke:none;" d="M136 47L137 48L136 47M147 47L148 48L147 47z"/>
<path style="fill:#999999; stroke:none;" d="M148 47L149 48L148 47z"/>
<path style="fill:#595959; stroke:none;" d="M155 47L156 48L155 47M158 47L159 48L158 47M168 47L169 48L168 47M184 47L185 48L184 47z"/>
<path style="fill:#2d2d2d; stroke:none;" d="M8 48L9 49L8 48M61 48L62 49L61 48M83 48L83 49L88 49L83 48M107 48L107 49L111 49L107 48M129.667 48.3333L130.333 48.6667L129.667 48.3333z"/>
<path style="fill:#595959; stroke:none;" d="M131 48L132 49L131 48z"/>
<path style="fill:#2d2d2d; stroke:none;" d="M132.667 48.3333L133.333 48.6667L132.667 48.3333M150 48L150 49L153 49L150 48M179 48L180 49L179 48z"/>
<path style="fill:#999999; stroke:none;" d="M184 48L185 49L184 48M189 48L190 49L189 48M9 49L10 50L9 49M60 49L61 50L60 49M181 49L181 50L184 50L181 49z"/>
<path style="fill:#2d2d2d; stroke:none;" d="M189 49L190 50L189 49z"/>
<path style="fill:#999999; stroke:none;" d="M178 50L179 51L178 50M188 50L189 51L188 50z"/>
<path style="fill:#595959; stroke:none;" d="M10 51L11 52L10 51M59 51L60 52L59 51z"/>
<path style="fill:#2d2d2d; stroke:none;" d="M188 51L189 52L188 51z"/>
<path style="fill:#999999; stroke:none;" d="M11 52L12 53L11 52M58 52L59 53L58 52z"/>
<path style="fill:#595959; stroke:none;" d="M177 52L178 53L177 52z"/>
<path style="fill:#2d2d2d; stroke:none;" d="M187 52L188 53L187 52z"/>
<path style="fill:#999999; stroke:none;" d="M57 53L58 54L57 53z"/>
<path style="fill:#2d2d2d; stroke:none;" d="M178 53L179 54L178 53z"/>
<path style="fill:#999999; stroke:none;" d="M179 53L180 54L179 53M185 53L186 54L185 53z"/>
<path style="fill:#2d2d2d; stroke:none;" d="M186 53L187 54L186 53M182.667 54.3333L183.333 54.6667L182.667 54.3333z"/>
<path style="fill:#999999; stroke:none;" d="M54 56L55 57L54 56M16 57L17 58L16 57M53 57L54 58L53 57z"/>
<path style="fill:#595959; stroke:none;" d="M17 58L18 59L17 58M52 58L53 59L52 58z"/>
<path style="fill:#999999; stroke:none;" d="M19 59L20 60L19 59M50 59L51 60L50 59z"/>
<path style="fill:#2d2d2d; stroke:none;" d="M20 60L21 61L20 60z"/>
<path style="fill:#999999; stroke:none;" d="M21 60L22 61L21 60M48 60L49 61L48 60z"/>
<path style="fill:#2d2d2d; stroke:none;" d="M49 60L50 61L49 60M22 61L23 62L22 61z"/>
<path style="fill:#999999; stroke:none;" d="M23 61L24 62L23 61M46 61L47 62L46 61z"/>
<path style="fill:#2d2d2d; stroke:none;" d="M47 61L48 62L47 61z"/>
<path style="fill:#595959; stroke:none;" d="M25 62L26 63L25 62z"/>
<path style="fill:#999999; stroke:none;" d="M26 62L27 63L26 62M43 62L44 63L43 62z"/>
<path style="fill:#595959; stroke:none;" d="M44 62L45 63L44 62z"/>
<path style="fill:#2d2d2d; stroke:none;" d="M28 63L29 64L28 63z"/>
<path style="fill:#999999; stroke:none;" d="M29 63L29 64L32 64L29 63M38 63L38 64L41 64L38 63z"/>
<path style="fill:#2d2d2d; stroke:none;" d="M41 63L42 64L41 63z"/>
</svg>
